<svg id="Layer_1" data-name="Layer 1" xmlns="http://www.w3.org/2000/svg" viewBox="0 0 345.03 314.48"><defs><style>.cls-1{fill:#00aeef;}.cls-2{fill:#ef4136;}</style></defs><path class="cls-1" d="M77.46,411.79,89.19,381h5.52l11.74,30.82H101l-2.44-6.37H85.34l-2.44,6.37Zm19.31-11.43L92,387.73l-4.83,12.63Z" transform="translate(-77.46 -97.92)"/><path class="cls-1" d="M111.46,380.54a3,3,0,1,1-3,3A3,3,0,0,1,111.46,380.54Zm-2.53,31.25v-21.4h5v21.4Z" transform="translate(-77.46 -97.92)"/><path class="cls-2" d="M120.9,411.79V368.63h27.94v7.07H128v10.14h18.46v7.07H128v18.88Z" transform="translate(-77.46 -97.92)"/><path class="cls-2" d="M153.63,411.79v-30h7.08v3.42a11.57,11.57,0,0,1,9-4v6.71a3.42,3.42,0,0,0-.78-.06c-4.5,0-8.21,3.18-8.21,7.74v16.18Z" transform="translate(-77.46 -97.92)"/><path class="cls-2" d="M186.13,381.22a12.54,12.54,0,0,1,9.23,4.32v-3.72h7.07v30h-7.07V408a12.22,12.22,0,0,1-9.23,4.43c-8.58,0-14.87-7-14.87-15.58S177.55,381.22,186.13,381.22Zm-7.8,15.59a8.52,8.52,0,1,0,8.52-8.52A8.55,8.55,0,0,0,178.33,396.81Z" transform="translate(-77.46 -97.92)"/><path class="cls-2" d="M209.38,381.82h7.08v3.24a12.41,12.41,0,0,1,9-3.84,11,11,0,0,1,10.07,5.64c2.7-3.42,5.88-5.64,10.67-5.64,7,0,11.75,4.92,11.75,12.53v18h-7.07V395.25c0-5-2.64-7.38-6.42-7.38-4.07,0-7.25,3-7.25,7.62v16.3h-7.07V395.25c0-5-2.64-7.38-6.42-7.38-4.08,0-7.25,3-7.25,7.74v16.18h-7.08Z" transform="translate(-77.46 -97.92)"/><path class="cls-2" d="M278.38,381.22c8.51,0,14.33,6.23,14.33,15.17,0,1.14-.18,2.4-.3,3.59h-22.3c1.2,3.72,4.55,6,9,6a10,10,0,0,0,7.43-3l4.5,4.5a15.73,15.73,0,0,1-12,4.91c-9.05,0-16-6.77-16-15.58S269.69,381.22,278.38,381.22ZM270,394.47h16.06a7.63,7.63,0,0,0-7.79-6.9A8.12,8.12,0,0,0,270,394.47Z" transform="translate(-77.46 -97.92)"/><path class="cls-2" d="M293.79,381.82h7.43l5.63,19.24,5.52-19.24h6.47l5.52,19.24L330,381.82h7.43l-9.29,30h-7.62l-4.91-16-5,16h-7.55Z" transform="translate(-77.46 -97.92)"/><path class="cls-2" d="M369.68,396.81a15.59,15.59,0,1,1-15.59-15.59A15.59,15.59,0,0,1,369.68,396.81Zm-15.59,8.51a8.52,8.52,0,1,0-8.51-8.51A8.55,8.55,0,0,0,354.09,405.32Z" transform="translate(-77.46 -97.92)"/><path class="cls-2" d="M374.83,411.79v-30h7.08v3.42a11.57,11.57,0,0,1,9-4v6.71a3.42,3.42,0,0,0-.78-.06c-4.5,0-8.21,3.18-8.21,7.74v16.18Z" transform="translate(-77.46 -97.92)"/><path class="cls-2" d="M395.45,411.79V368.63h7.08v25.48l10.31-12.29h8.93L409.6,396.27l12.89,15.52h-8.87l-11.09-13.36v13.36Z" transform="translate(-77.46 -97.92)"/><path class="cls-1" d="M179.2,296.16V282H165V267.84H150.88V253.68H136.72V239.52H122.56V225.36H108.4V182.88h14.16V168.72h14.16V154.56h14.16V140.4H165V126.24H179.2V112.08h14.16V97.92h28.32v28.32H207.52V140.4H193.36v14.16H179.2v14.16H165v14.16H150.88V197H136.72V211.2h14.16v14.16H165v14.16H179.2v14.16h14.16v14.16h14.16V282h14.16v28.32H193.36V296.16Z" transform="translate(-77.46 -97.92)"/><path class="cls-2" d="M278.32,282H264.16V253.68h28.32v14.16h14.16V282h56.64V267.84h14.16V239.52H363.28V225.36H320.8V197h42.48V182.88h14.16V154.56H363.28V140.4H306.64v14.16H292.48v14.16H264.16V140.4h14.16V126.24h14.16V112.08h85v14.16H391.6V140.4h14.16V197H391.6v28.32h14.16V282H391.6v14.16H377.44v14.16h-85V296.16H278.32Z" transform="translate(-77.46 -97.92)"/></svg>